<svg id="e4f6c388-dbd4-4e85-9daa-9fd5cf84f88f" data-name="Capa 1" xmlns="http://www.w3.org/2000/svg" viewBox="0 0 150 150"><defs><style>.bd76b735-38a1-45d7-a157-a8cacf5dfe9f{fill:#fff;}</style></defs><title>ICONOS_Paginas_Web</title><path id="b702f97a-7930-4ba1-a089-ddef622f18f8" data-name="arrow_right_corner" class="bd76b735-38a1-45d7-a157-a8cacf5dfe9f" d="M150,15A15,15,0,0,0,135,0H15A15,15,0,0,0,0,15V135a15,15,0,0,0,15,15H135a15,15,0,0,0,15-15ZM15,22.5A7.5,7.5,0,0,1,22.5,15h105a7.5,7.5,0,0,1,7.5,7.5v105a7.5,7.5,0,0,1-7.5,7.5h-60a7.5,7.5,0,0,1-7.5-7.5V105A15,15,0,0,0,45,90H22.5A7.5,7.5,0,0,1,15,82.5Zm45,15A7.5,7.5,0,0,1,67.5,30H105a15,15,0,0,1,15,15V82.5a7.5,7.5,0,0,1-15,0V64.66A3.75,3.75,0,0,0,98.6,62L75.91,84.7A7.5,7.5,0,1,1,65.3,74.09L88,51.4A3.75,3.75,0,0,0,85.34,45H67.5A7.5,7.5,0,0,1,60,37.5Z"/></svg>