<svg id="b0b5bd70-422a-4745-8a5f-4d991d666c4f" data-name="Capa 1" xmlns="http://www.w3.org/2000/svg" viewBox="0 0 150 150"><defs><style>.b411d7a5-76fa-4481-a85c-21a8f50b721e{fill:#1a1a1a;}</style></defs><title>ICONOS_Paginas_Web</title><path class="b411d7a5-76fa-4481-a85c-21a8f50b721e" d="M150,150h0V95c0-26.91-5.79-47.64-37.26-47.64-15.12,0-25.27,8.3-29.42,16.17h-.43V49.85H53.06V150H84.12V100.41c0-13.06,2.47-25.68,18.64-25.68,15.93,0,16.17,14.9,16.17,26.51V150Zm0,0M2.47,49.86H33.58V150H2.47ZM18,0A18.1,18.1,0,1,0,36,18,18,18,0,0,0,18,0Zm0,0"/></svg>