<svg id="e4a6e747-5e0b-480b-b3d1-d544c38b3264" data-name="Capa 1" xmlns="http://www.w3.org/2000/svg" viewBox="0 0 150 150"><defs><style>.bf020e46-a43c-4e0b-bd78-fb8252053761{fill:#fff;}</style></defs><title>ICONOS_Paginas_Web</title><path id="af5ce296-3bfa-4757-9642-249d38d814dc" data-name="tap" class="bf020e46-a43c-4e0b-bd78-fb8252053761" d="M129,94.34,125.45,133a21.12,21.12,0,0,1-20.71,17H53.67a10.36,10.36,0,0,1-8.59-4.57L22.39,101.76a10.48,10.48,0,0,1,1.43-13.32,10.94,10.94,0,0,1,16.39,1.37L50,102.41V12.68c0-5.84,3.79-10.57,9.63-10.57,7.51,0,9.63,6.83,9.63,10.57L69.32,66l45.61,4.21A21.12,21.12,0,0,1,129,94.34Z"/></svg>