<svg id="b4a1cd26-7f67-4f08-ae70-0c86062cc7c6" data-name="Capa 1" xmlns="http://www.w3.org/2000/svg" viewBox="0 0 150 150"><defs><style>.ab1168c1-3815-47ef-9b14-c441bf8d0180{fill:#1a1a1a;}</style></defs><title>ICONOS_Paginas_Web</title><path class="ab1168c1-3815-47ef-9b14-c441bf8d0180" d="M103.13,0H46.87A46.88,46.88,0,0,0,0,46.87v56.26A46.88,46.88,0,0,0,46.87,150h56.26A46.88,46.88,0,0,0,150,103.13V46.87A46.88,46.88,0,0,0,103.13,0Zm32.81,103.13a32.85,32.85,0,0,1-32.81,32.81H46.87a32.85,32.85,0,0,1-32.81-32.81V46.87A32.85,32.85,0,0,1,46.87,14.06h56.26a32.85,32.85,0,0,1,32.81,32.81ZM75,37.5A37.5,37.5,0,1,0,112.5,75,37.5,37.5,0,0,0,75,37.5Zm0,60.94A23.44,23.44,0,1,1,98.44,75,23.47,23.47,0,0,1,75,98.44Zm40.31-68.75a5,5,0,1,1-5,5A5,5,0,0,1,115.31,29.69Z"/></svg>