<svg id="bfeefb05-de04-41b9-bf0a-0693a1994e57" data-name="Capa 1" xmlns="http://www.w3.org/2000/svg" viewBox="0 0 150 150"><defs><style>.bbd21c84-d369-4919-beb1-9aa47334ae1e{fill:#fff;}</style></defs><title>ICONOS_Paginas_Web</title><path class="bbd21c84-d369-4919-beb1-9aa47334ae1e" d="M13.42,133.21H136.58C144,133.21,150,128,150,121.5h0V59.68a10.31,10.31,0,0,0-.21-2L79,96.2c-.09,0-.18.08-.27.12l-.28.14a8.73,8.73,0,0,1-1.54.52l-.17,0A8.51,8.51,0,0,1,75,97.2h0A8.51,8.51,0,0,1,73.25,97l-.17,0a8.73,8.73,0,0,1-1.54-.52l-.28-.14c-.09,0-.18-.07-.27-.12L.21,57.67a10.31,10.31,0,0,0-.21,2V121.5C0,128,6,133.21,13.42,133.21Z"/><polygon class="bbd21c84-d369-4919-beb1-9aa47334ae1e" points="75 16.79 0.92 57.11 149.07 57.11 75 16.79"/></svg>