<svg id="f850581f-0fe9-4c14-b0df-3506f7b34d71" data-name="Capa 1" xmlns="http://www.w3.org/2000/svg" viewBox="0 0 150 150"><defs><style>.b8d1b531-cd6b-4e1b-9227-8486a45e592f{fill:#fff;}</style></defs><title>ICONOS_Paginas_Web</title><path id="a7846f6c-cb90-4c24-ad56-2eae14491d34" data-name="star" class="b8d1b531-cd6b-4e1b-9227-8486a45e592f" d="M144.4,83.3A18.78,18.78,0,0,1,144.47,69l4.06-9.69a18.75,18.75,0,0,0-10-24.55l-9.69-4.07A18.74,18.74,0,0,1,118.7,20.45l-3.17-7.77A18.75,18.75,0,0,0,91.07,2.42L83.3,5.6A18.78,18.78,0,0,1,69,5.53L59.26,1.47a18.75,18.75,0,0,0-24.55,10l-4.07,9.69A18.74,18.74,0,0,1,20.45,31.3l-7.77,3.17A18.75,18.75,0,0,0,2.42,58.93L5.6,66.7a18.78,18.78,0,0,1-.07,14.35L1.47,90.74a18.75,18.75,0,0,0,10,24.55l9.69,4.07A18.74,18.74,0,0,1,31.3,129.55l3.17,7.77a18.75,18.75,0,0,0,24.46,10.26l7.77-3.18a18.78,18.78,0,0,1,14.35.07l9.69,4.06a18.75,18.75,0,0,0,24.55-10l4.07-9.69a18.74,18.74,0,0,1,10.19-10.11l7.77-3.17a18.75,18.75,0,0,0,10.26-24.46Zm-17.89-1.07h0a18.76,18.76,0,0,1-10.26,24.46h0l-6.2,2.53-3.41,8.12c-3.69,8.8-13.57,14.65-26.5,9.22L74,124l-6.2,2.54h0c-8.21,3.35-18.76,1.12-24.46-10.26l-2.53-6.2-8.12-3.41C23.86,103,18,93.07,23.44,80.14L26,74l-2.53-6.2h0A18.75,18.75,0,0,1,33.75,43.31h0L40,40.78c1.36-3.25,2.23-5.33,3.41-8.13C47.07,23.8,57,18,69.86,23.44L76,26l6.2-2.53h0a18.76,18.76,0,0,1,24.46,10.26h0l2.53,6.2,8.13,3.41C126.2,47.07,132,57,126.56,69.86L124,76ZM75,42.68A32.32,32.32,0,1,0,107.32,75,32.32,32.32,0,0,0,75,42.68Zm0,48.48A16.16,16.16,0,1,1,91.16,75,16.18,16.18,0,0,1,75,91.16Z"/></svg>