<svg id="fc6cb6a8-b55b-4f45-a840-6ff95010d407" data-name="Capa 1" xmlns="http://www.w3.org/2000/svg" viewBox="0 0 150 150"><defs><style>.eabc2de8-19e9-4067-9635-5601c425d87c{fill:#fff;}</style></defs><title>ICONOS_Paginas_Web</title><path id="fa600d3c-30ec-4b6f-8f3e-5120a33d51b4" data-name="hot_air_balloon" class="eabc2de8-19e9-4067-9635-5601c425d87c" d="M127.5,43.81c0,40.48-33.12,39.07-38,69.88A7.47,7.47,0,0,1,82.12,120H65.71a7.46,7.46,0,0,1-7.37-6.36C53.64,82.88,22.5,84.25,22.5,43.8,22.5,11.64,49.05,0,73.9,0S127.5,11.65,127.5,43.81ZM90,142.5a7.5,7.5,0,0,0-7.5-7.5h-15a7.5,7.5,0,0,0-7.5,7.5h0a7.5,7.5,0,0,0,7.5,7.5h15a7.5,7.5,0,0,0,7.5-7.5Z"/></svg>