<svg id="aedf791c-0c34-4cb6-9c21-da20c4909b66" data-name="Capa 1" xmlns="http://www.w3.org/2000/svg" viewBox="0 0 150 150"><defs><style>.a58b5546-3535-4bee-b2e4-d0fb8f3e682e{fill:#fff;}</style></defs><title>ICONOS_Paginas_Web</title><path class="a58b5546-3535-4bee-b2e4-d0fb8f3e682e" d="M114,99.23c-4.9-4.84-11-4.84-15.89,0-3.71,3.68-7.43,7.36-11.08,11.11-1,1-1.84,1.25-3.06.56-2.4-1.31-5-2.37-7.27-3.81C66,100.32,57,91.61,49,81.81a66.06,66.06,0,0,1-10-16,2.29,2.29,0,0,1,.56-2.93c3.72-3.59,7.34-7.28,11-11,5.09-5.12,5.09-11.11,0-16.26-2.9-2.94-5.81-5.81-8.71-8.74s-6-6-9-9c-4.9-4.78-11-4.78-15.89,0C13.19,21.69,9.6,25.47,5.79,29.09A18.06,18.06,0,0,0,.11,41.29c-.59,7.78,1.31,15.11,4,22.26,5.49,14.8,13.85,27.94,24,40A148.55,148.55,0,0,0,77.3,142c8.62,4.19,17.54,7.4,27.25,7.93,6.68.38,12.49-1.31,17.14-6.52,3.18-3.56,6.77-6.81,10.14-10.21,5-5.06,5-11.17.07-16.17Q123,108.11,114,99.23Zm0,0"/><path class="a58b5546-3535-4bee-b2e4-d0fb8f3e682e" d="M108.08,74.35l11.52-2A51.7,51.7,0,0,0,75.87,30L74.24,41.54a39.94,39.94,0,0,1,33.84,32.81Zm0,0"/><path class="a58b5546-3535-4bee-b2e4-d0fb8f3e682e" d="M126.09,24.28A85,85,0,0,0,77.4,0L75.77,11.58a74.11,74.11,0,0,1,62.71,60.77l11.52-2a85.56,85.56,0,0,0-23.91-46.11Zm0,0"/></svg>