<svg id="e5ffda4c-9164-4418-b9a4-4a8e8f48553b" data-name="Capa 1" xmlns="http://www.w3.org/2000/svg" viewBox="0 0 150 150"><defs><style>.be280218-4d3a-41a9-ac2f-5d00d50608a6{fill:#fff;}</style></defs><title>ICONOS_Paginas_Web</title><path id="a828dd17-090a-45bf-b81d-877ca6349ae4" data-name="star_favorite" class="be280218-4d3a-41a9-ac2f-5d00d50608a6" d="M125.4,91.55a14.5,14.5,0,0,0-3.9,12.52l4.83,29.36C127.84,142.58,120.87,150,113,150a13.1,13.1,0,0,1-6.32-1.66L81.32,134.48a13.07,13.07,0,0,0-12.64,0L43.37,148.34A13.1,13.1,0,0,1,37.05,150c-7.92,0-14.89-7.42-13.38-16.57l4.83-29.36a14.5,14.5,0,0,0-3.9-12.52L4.11,70.75c-8-8.18-3.61-22.44,7.53-24.12l28.3-4.29A13.63,13.63,0,0,0,50.17,34.6L62.82,7.88a13.35,13.35,0,0,1,24.36,0L99.83,34.6a13.63,13.63,0,0,0,10.23,7.74l28.3,4.29c11.14,1.68,15.58,15.94,7.53,24.12Z"/></svg>