<svg id="a0ea0ce3-760a-411a-9c95-8d72cd10fa05" data-name="Capa 1" xmlns="http://www.w3.org/2000/svg" viewBox="0 0 150 150"><defs><style>.ff67bc64-fb69-4905-8e25-9297099ee547{fill:#fff;}</style></defs><title>ICONOS_Paginas_Web</title><path id="b3467607-c73f-417f-a3fc-f52af1b8cb4b" data-name="like" class="ff67bc64-fb69-4905-8e25-9297099ee547" d="M149.47,85.16l-13,49a20.43,20.43,0,0,1-20,15.82H45V60.16L57.89,13.69A16.23,16.23,0,0,1,80.07,1.18C86.29,3.57,90,10,90,16.71V52.66A7.37,7.37,0,0,0,97.5,60h32A20.55,20.55,0,0,1,149.47,85.16ZM0,75.16v60A14.87,14.87,0,0,0,15,150H30V60H15A15.14,15.14,0,0,0,0,75.16Z"/></svg>