<svg id="e4bb719e-9310-4c39-8b4a-4d7e6fed2d44" data-name="Capa 1" xmlns="http://www.w3.org/2000/svg" viewBox="0 0 150 150"><defs><style>.b163caaa-69a0-4d0a-8f9d-2012c7125b80{fill:#fff;}</style></defs><title>ICONOS_Paginas_Web</title><path class="b163caaa-69a0-4d0a-8f9d-2012c7125b80" d="M75,0a75,75,0,1,0,75,75A75.08,75.08,0,0,0,75,0Zm25,37.5A12.5,12.5,0,1,1,87.5,50,12.5,12.5,0,0,1,100,37.5Zm-50,0A12.5,12.5,0,1,1,37.5,50,12.5,12.5,0,0,1,50,37.5Zm25,93.75c-23.31,0-43.75-20.44-43.75-43.75a6.25,6.25,0,0,1,6.25-6.25h75a6.25,6.25,0,0,1,6.25,6.25C118.75,110.81,98.31,131.25,75,131.25Z"/></svg>